<?xml version="1.0" encoding="utf-8"?>
<!-- Generator: $$$/GeneralStr/196=Adobe Illustrator 27.6.0, SVG Export Plug-In . SVG Version: 6.00 Build 0)  -->
<svg version="1.1" id="Layer_1" xmlns="http://www.w3.org/2000/svg" xmlns:xlink="http://www.w3.org/1999/xlink" x="0px" y="0px"
	 viewBox="0 0 260 55" style="enable-background:new 0 0 260 55;" xml:space="preserve">
<g>
	<polygon shape-rendering="geometricPrecision" points="22.8,41.4 17.1,41.4 17.1,37.8 16,37.8 16,47.3 17.1,47.3 17.1,42.4 22.8,42.4 22.8,47.3 23.9,47.3 23.9,37.8 
		22.8,37.8 	"/>
	<path shape-rendering="geometricPrecision" d="M44.1,43.6c0,0.4-0.1,0.7-0.2,1c-0.2,0.3-0.4,0.6-0.6,0.8c-0.3,0.2-0.6,0.4-1,0.6c-0.7,0.3-1.6,0.3-2.4,0
		c-0.4-0.1-0.7-0.3-1-0.6c-0.3-0.2-0.5-0.5-0.6-0.8c-0.2-0.3-0.2-0.7-0.2-1v-5.8H37v5.8c0,0.5,0.1,1,0.3,1.4
		c0.2,0.4,0.5,0.8,0.9,1.2c0.4,0.3,0.8,0.6,1.3,0.8c0.5,0.2,1,0.3,1.6,0.3c0.6,0,1.1-0.1,1.6-0.3c0.5-0.2,0.9-0.5,1.3-0.8
		c0.4-0.3,0.7-0.7,0.9-1.2c0.2-0.4,0.3-0.9,0.3-1.4v-5.8h-1.1V43.6z"/>
	<polygon shape-rendering="geometricPrecision" points="47.3,38.8 51.1,38.8 51.1,47.3 52.2,47.3 52.2,38.8 56,38.8 56,37.8 47.3,37.8 	"/>
	<polygon shape-rendering="geometricPrecision" points="59.4,42.3 62.7,42.3 62.7,41.2 59.4,41.2 59.4,38.8 64.2,38.8 64.2,37.8 58.3,37.8 58.3,47.3 64.6,47.3 64.6,46.3 
		59.4,46.3 	"/>
	<path shape-rendering="geometricPrecision" d="M77.8,38.7c-0.3-0.3-0.6-0.5-1-0.6c-0.4-0.2-0.8-0.2-1.2-0.2h-2.8v9.5h1.1v-3.6h1.8c0.4,0,0.8-0.1,1.2-0.2
		c0.4-0.2,0.7-0.4,1-0.6c0.3-0.3,0.5-0.6,0.7-0.9c0.2-0.4,0.2-0.8,0.2-1.2c0-0.4-0.1-0.8-0.2-1.2C78.3,39.2,78.1,38.9,77.8,38.7z
		 M75.7,42.7h-1.8v-3.9h1.8c0.3,0,0.5,0.1,0.8,0.2c0.2,0.1,0.5,0.2,0.6,0.4c0.2,0.2,0.3,0.4,0.4,0.6c0.1,0.2,0.2,0.5,0.2,0.8
		c0,0.3-0.1,0.5-0.2,0.7c-0.1,0.2-0.3,0.4-0.4,0.6c-0.2,0.2-0.4,0.3-0.6,0.4C76.2,42.7,75.9,42.7,75.7,42.7z"/>
	<path shape-rendering="geometricPrecision" d="M95.1,43.4c0.5-0.2,0.9-0.6,1.2-1c0.4-0.5,0.5-1.1,0.5-1.7c0-0.4-0.1-0.8-0.2-1.1c-0.2-0.4-0.4-0.7-0.7-0.9
		c-0.3-0.3-0.6-0.5-1-0.7c-0.4-0.2-0.8-0.3-1.2-0.3h-2.9v9.5h1.1v-3.6H94l2.9,3.6h1.4l-2.6-3.2C95.5,43.9,95.3,43.7,95.1,43.4z
		 M91.9,38.8h1.9c0.3,0,0.6,0.1,0.8,0.2c0.2,0.1,0.5,0.2,0.7,0.4c0.2,0.2,0.3,0.4,0.4,0.6c0.1,0.2,0.2,0.5,0.2,0.8
		c0,0.3-0.1,0.5-0.2,0.7c-0.1,0.2-0.3,0.4-0.4,0.6c-0.2,0.2-0.4,0.3-0.7,0.4c-0.2,0.1-0.5,0.2-0.8,0.2h-1.9V38.8z"/>
	<polygon shape-rendering="geometricPrecision" points="100.5,47.3 101.6,47.3 101.6,42.3 105.2,42.3 105.2,41.3 101.6,41.3 101.6,38.8 106.3,38.8 106.3,37.8 100.5,37.8 
			"/>
	<path shape-rendering="geometricPrecision" d="M115.3,43.7c0,0.4-0.1,0.7-0.2,1c-0.2,0.3-0.4,0.6-0.6,0.9c-0.3,0.2-0.6,0.4-1,0.6c-0.7,0.3-1.6,0.3-2.4,0
		c-0.4-0.1-0.7-0.3-1-0.6c-0.3-0.2-0.5-0.5-0.6-0.9c-0.2-0.3-0.2-0.7-0.2-1v-5.9h-1.1v5.9c0,0.5,0.1,1,0.3,1.5
		c0.2,0.5,0.5,0.8,0.9,1.2c0.4,0.3,0.8,0.6,1.3,0.8c0.5,0.2,1,0.3,1.6,0.3c0.6,0,1.1-0.1,1.6-0.3c0.5-0.2,0.9-0.5,1.3-0.8
		c0.4-0.3,0.7-0.7,0.9-1.2c0.2-0.5,0.3-0.9,0.3-1.5v-5.9h-1.1V43.7z"/>
	<polygon shape-rendering="geometricPrecision" points="119.5,37.8 119.5,47.3 120.6,47.3 120.6,40.5 123.9,44.2 127.2,40.5 127.2,47.3 128.3,47.3 128.3,37.8 123.9,42.7 
			"/>
	<polygon shape-rendering="geometricPrecision" points="132.6,42.3 135.9,42.3 135.9,41.2 132.6,41.2 132.6,38.8 137.5,38.8 137.5,37.8 131.6,37.8 131.6,47.3 137.8,47.3 
		137.8,46.3 132.6,46.3 	"/>
	<path shape-rendering="geometricPrecision" d="M144.4,43.4c0.5-0.2,0.9-0.6,1.2-1c0.4-0.5,0.5-1.1,0.5-1.7c0-0.4-0.1-0.8-0.2-1.1c-0.2-0.4-0.4-0.7-0.7-0.9
		c-0.3-0.3-0.6-0.5-1-0.7c-0.4-0.2-0.8-0.3-1.2-0.3h-2.9v9.5h1.1v-3.6h2.1l2.9,3.6h1.4l-2.6-3.2C144.8,43.9,144.6,43.7,144.4,43.4z
		 M141.2,38.8h1.9c0.3,0,0.6,0.1,0.8,0.2c0.2,0.1,0.5,0.2,0.7,0.4c0.2,0.2,0.3,0.4,0.4,0.6c0.1,0.2,0.2,0.5,0.2,0.8
		c0,0.3-0.1,0.5-0.2,0.7c-0.1,0.2-0.3,0.4-0.4,0.6c-0.2,0.2-0.4,0.3-0.7,0.4c-0.2,0.1-0.5,0.2-0.8,0.2h-1.9V38.8z"/>
	<rect shape-rendering="geometricPrecision" x="149.7" y="37.8" width="1.1" height="9.5"/>
	<polygon shape-rendering="geometricPrecision" points="155.4,42.3 158.7,42.3 158.7,41.2 155.4,41.2 155.4,38.8 160.2,38.8 160.2,37.8 154.3,37.8 154.3,47.3 160.6,47.3 
		160.6,46.3 155.4,46.3 	"/>
	<polygon shape-rendering="geometricPrecision" points="168.8,47.3 169.9,47.3 169.9,42.3 173.6,42.3 173.6,41.3 169.9,41.3 169.9,38.8 174.6,38.8 174.6,37.8 168.8,37.8 
			"/>
	<path shape-rendering="geometricPrecision" d="M181.3,43.4c0.5-0.2,0.9-0.6,1.2-1c0.4-0.5,0.5-1.1,0.5-1.7c0-0.4-0.1-0.8-0.2-1.1c-0.2-0.4-0.4-0.7-0.7-0.9
		c-0.3-0.3-0.6-0.5-1-0.7c-0.4-0.2-0.8-0.3-1.2-0.3H177v9.5h1.1v-3.6h2.1l2.9,3.6h1.4l-2.6-3.2C181.7,43.9,181.5,43.7,181.3,43.4z
		 M178.1,38.8h1.9c0.3,0,0.6,0.1,0.8,0.2c0.2,0.1,0.5,0.2,0.7,0.4c0.2,0.2,0.3,0.4,0.4,0.6c0.1,0.2,0.2,0.5,0.2,0.8
		c0,0.3-0.1,0.5-0.2,0.7c-0.1,0.2-0.3,0.4-0.4,0.6c-0.2,0.2-0.4,0.3-0.7,0.4c-0.2,0.1-0.5,0.2-0.8,0.2h-1.9V38.8z"/>
	<path shape-rendering="geometricPrecision" d="M204.3,37.8c-0.4,0-0.7,0-1.1,0c0,2.3,0,4.7,0,7l-6.6-6.9c0,3.2,0,6.3,0,9.5c0.4,0,0.7,0,1.1,0c0-2.3,0-4.6,0-7l6.6,6.9
		C204.3,44.2,204.3,41,204.3,37.8z"/>
	<path shape-rendering="geometricPrecision" d="M215,45.5c-0.4,0.3-0.8,0.5-1.2,0.6c-0.8,0.2-1.6,0.2-2.3,0.1c-0.3-0.1-0.7-0.2-1-0.4c-0.6-0.4-1.1-0.8-1.5-1.4
		c-0.3-0.6-0.5-1.2-0.5-1.8c0-0.3,0-0.7,0.1-1c0.1-0.3,0.2-0.6,0.5-0.9c0.4-0.6,0.9-1,1.5-1.3c0.9-0.5,1.9-0.6,3.1-0.3
		c0.4,0.1,0.8,0.3,1.2,0.5l0.2,0.1l0.6-0.8l-0.2-0.1c-0.5-0.3-1-0.5-1.4-0.6c-0.9-0.3-1.8-0.3-2.7-0.1c-0.4,0.1-0.8,0.3-1.2,0.4
		c-0.4,0.2-0.7,0.4-1.1,0.7c-0.3,0.3-0.6,0.6-0.9,1c-0.3,0.4-0.4,0.8-0.6,1.2c-0.1,0.4-0.2,0.8-0.2,1.3c0,0.4,0.1,0.8,0.2,1.2
		c0.1,0.4,0.3,0.8,0.5,1.1c0.2,0.3,0.5,0.7,0.8,1c0.3,0.3,0.7,0.6,1,0.8c0.4,0.2,0.8,0.4,1.3,0.5l0,1.1c-0.3,0-0.7,0-1,0
		c0,0.2,0,0.4,0.1,0.7c0,0.1,0.1,0.4,0.4,0.6c0.2,0.2,0.4,0.2,0.6,0.3c0.1,0,0.3,0.1,0.4,0.1c0.4,0,0.7-0.1,1-0.4
		c0.3-0.3,0.4-0.6,0.4-0.9c0-0.3-0.1-0.6-0.3-0.8c-0.1-0.2-0.3-0.3-0.6-0.4c0,0,0,0,0,0h0.3c0.5,0,1-0.1,1.5-0.2
		c0.5-0.2,1-0.4,1.5-0.7l0.2-0.1l-0.6-0.8L215,45.5z M211.7,49.2c0.1,0,0.2,0,0.2,0C211.8,49.2,211.7,49.2,211.7,49.2
		C211.7,49.2,211.7,49.2,211.7,49.2z M211.2,48.2c0.2-0.1,0.4-0.1,0.5,0c0.4,0.1,0.5,0.7,0.3,0.8c-0.2,0.1-0.7,0-0.9-0.4
		C211.2,48.4,211.2,48.3,211.2,48.2z"/>
	<rect shape-rendering="geometricPrecision" x="227.8" y="37.8" width="1.1" height="9.5"/>
	<path shape-rendering="geometricPrecision" d="M237.7,42.5c-0.4-0.2-0.7-0.4-1.1-0.4c-0.4-0.1-0.7-0.1-1.1-0.1c-0.3,0-0.6,0-0.9-0.1c-0.3,0-0.5-0.1-0.8-0.3
		c-0.2-0.1-0.4-0.3-0.5-0.5c-0.1-0.2-0.2-0.4-0.2-0.6c0-0.3,0.1-0.5,0.2-0.7c0.2-0.2,0.4-0.4,0.6-0.5c0.3-0.1,0.6-0.2,0.9-0.3
		c0.5-0.1,1.1-0.1,1.5-0.1c0.2,0,0.4,0,0.5,0.1c0.2,0,0.4,0.1,0.6,0.1c0.2,0,0.4,0.1,0.6,0.2l0.2,0.1l0.4-0.9l-0.2-0.1
		c-0.2-0.1-0.4-0.1-0.6-0.2c-0.2-0.1-0.4-0.1-0.6-0.1c-0.2,0-0.4-0.1-0.6-0.1c-0.6-0.1-1,0-1.4,0c-0.2,0-0.4,0-0.5,0.1
		c-0.8,0.1-1.5,0.4-2,0.9c-0.5,0.5-0.8,1-0.8,1.6c0,0.5,0.1,0.9,0.4,1.2c0,0,0.1,0.1,0.2,0.2c0.2,0.3,0.6,0.5,0.7,0.6
		c0.3,0.2,0.7,0.3,1.1,0.4c0.3,0,0.7,0.1,1,0.1c0.2,0,0.4,0,0.6,0.1c0.2,0,0.4,0.1,0.6,0.1c0.2,0.1,0.4,0.1,0.5,0.2
		c0.2,0.1,0.3,0.2,0.4,0.4c0.1,0.1,0.1,0.2,0.2,0.4c0.1,0.1,0.1,0.3,0.1,0.4c0,0.3-0.1,0.5-0.2,0.8c-0.1,0.2-0.3,0.4-0.5,0.5
		c-0.2,0.2-0.5,0.3-0.8,0.4c-0.3,0.1-0.6,0.1-0.9,0.1h-0.6c-0.1,0-0.3,0-0.5,0c-0.2,0-0.4-0.1-0.5-0.1c-0.2,0-0.4-0.1-0.5-0.1
		c-0.2,0-0.3-0.1-0.4-0.1l-0.5-0.1l-0.4,0.9l0.2,0.1c0.2,0.1,0.5,0.1,0.7,0.2c0.3,0.1,0.5,0.1,0.8,0.2c0.3,0,0.5,0.1,0.8,0.1
		c0.3,0,0.5,0,0.7,0c0.5,0,1-0.1,1.4-0.2c0.5-0.1,0.9-0.3,1.2-0.5c0.3-0.2,0.6-0.5,0.8-0.9c0.2-0.3,0.3-0.7,0.3-1.2
		c0-0.4-0.1-0.8-0.3-1.2C238.3,43,238,42.7,237.7,42.5z"/>
	<polygon shape-rendering="geometricPrecision" points="242.9,42.3 246.2,42.3 246.2,41.2 242.9,41.2 242.9,38.8 247.8,38.8 247.8,37.8 241.8,37.8 241.8,47.3 248.1,47.3 
		248.1,46.3 242.9,46.3 	"/>
	<path shape-rendering="geometricPrecision" d="M19.7,26.7c0.1,0.1,0.1,0.2,0.2,0.3c0.7,0,1.5,0,2.2,0c-3-6.6-6.1-13.2-9.1-19.7l-0.3-0.6L3.8,26.3
		c-0.1,0.3-0.3,0.5-0.4,0.8c0.4,0,0.7,0,1.1,0c0.2,0,0.4,0,0.6,0c0.2,0,0.4,0,0.6,0c0.3-0.7,0.7-1.4,1-2.1c0.3-0.7,0.6-1.3,0.9-1.9
		l1.7-3.6h7.1L19.7,26.7z M15.4,18H9.9l2.8-6.6l1.1,2.6c0.2,0.5,0.4,1,0.6,1.5c0.2,0.5,0.4,1,0.7,1.6c0.1,0.2,0.2,0.4,0.3,0.7
		C15.3,17.8,15.4,17.9,15.4,18z"/>
	<polygon shape-rendering="geometricPrecision" points="33,27.1 35.1,27.1 35.1,8.6 43.4,8.6 43.4,6.6 24.6,6.6 24.6,8.6 33,8.6 	"/>
	<polygon shape-rendering="geometricPrecision" points="61.8,25.1 50.4,25.1 50.4,16.1 57.6,16.1 57.6,14.1 50.4,14.1 50.4,8.6 61,8.6 61,6.6 48.4,6.6 48.4,27.1 
		61.8,27.1 	"/>
	<polygon shape-rendering="geometricPrecision" points="80.5,25.1 68.4,25.1 68.4,6.6 66.3,6.6 66.3,27.1 80.5,27.1 	"/>
	<rect shape-rendering="geometricPrecision" x="84.9" y="6.6" width="2.2" height="20.5"/>
	<polygon shape-rendering="geometricPrecision" points="96.7,16.1 103.9,16.1 103.9,14.1 96.7,14.1 96.7,8.6 107.3,8.6 107.3,6.6 94.6,6.6 94.6,27.1 108,27.1 108,25.1 
		96.7,25.1 	"/>
	<path shape-rendering="geometricPrecision" d="M128.3,26.6c-0.5-0.6-1.1-1.3-1.6-2l-3.4-4.2c-0.5-0.6-0.9-1.1-1.3-1.6c1.1-0.5,2.1-1.2,2.7-2.2c0.8-1.1,1.1-2.3,1.1-3.6
		c0-0.8-0.2-1.6-0.5-2.4c-0.3-0.8-0.8-1.4-1.4-2c-0.6-0.6-1.3-1-2.1-1.4c-0.8-0.4-1.7-0.5-2.6-0.5h-6.2v20.5h2.1v-7.7h4.8L126,27
		l0.1,0.1h2l0.4,0h0.2l0,0l0,0L128.3,26.6z M115,8.6h4.2c0.7,0,1.3,0.1,1.8,0.3c0.6,0.2,1,0.6,1.5,1c0.4,0.4,0.7,0.9,1,1.4
		c0.2,0.5,0.4,1.1,0.4,1.7c0,0.6-0.1,1.2-0.4,1.7c-0.2,0.5-0.6,1-1,1.4c-0.4,0.4-0.9,0.7-1.5,1c-0.5,0.2-1.2,0.3-1.8,0.3H115V8.6z"
		/>
	<polygon shape-rendering="geometricPrecision" points="200.3,27.1 202.4,27.1 202.4,8.6 210.7,8.6 210.7,6.6 192,6.6 192,8.6 200.3,8.6 	"/>
	<polygon shape-rendering="geometricPrecision" points="217.8,16.1 224.9,16.1 224.9,14.1 217.8,14.1 217.8,8.6 228.4,8.6 228.4,6.6 215.7,6.6 215.7,27.1 229.1,27.1 
		229.1,25.1 217.8,25.1 	"/>
	<path shape-rendering="geometricPrecision" d="M249.4,26.6c-0.5-0.6-1.1-1.3-1.6-2l-3.4-4.2c-0.5-0.6-0.9-1.1-1.3-1.6c1.1-0.5,2.1-1.2,2.7-2.2c0.8-1.1,1.1-2.3,1.1-3.6
		c0-0.8-0.2-1.6-0.5-2.4c-0.3-0.8-0.8-1.4-1.4-2c-0.6-0.6-1.3-1-2.1-1.4c-0.8-0.4-1.7-0.5-2.6-0.5H234v20.5h2.1v-7.7h4.8l6.2,7.6
		l0.1,0.1h2l0.4,0h0.2l0,0l0,0L249.4,26.6z M236.1,8.6h4.2c0.7,0,1.3,0.1,1.8,0.3c0.6,0.2,1,0.6,1.5,1c0.4,0.4,0.7,0.9,1,1.4
		c0.2,0.5,0.4,1.1,0.4,1.7c0,0.6-0.1,1.2-0.4,1.7c-0.2,0.5-0.6,1-1,1.4c-0.4,0.4-0.9,0.7-1.5,1c-0.5,0.2-1.2,0.3-1.8,0.3h-4.2V8.6z"
		/>
	<rect shape-rendering="geometricPrecision" x="254.5" y="6.6" width="2.2" height="20.5"/>
	<path shape-rendering="geometricPrecision" d="M156.3,23.9c-0.7-1.1-1.3-2.3-2-3.4c-1.6-2.8-3.1-5.5-4.7-8.3c-0.8-1.4-1.5-2.7-2.3-4.1c0-0.1-0.2-0.3-0.3-0.5
		c-0.2-0.3-0.3-0.6-0.4-0.8c0,0.5,0,1,0,1.5c0,0,0,0.1,0,0.1v17.1c0,0.6,0,1.2,0,1.7h2.4V14.9c2.4,4,4.8,8.1,7.2,12.1
		c2.4-4.1,4.9-8.1,7.3-12.2l0.2,12v0.3h2.1c0-6.8,0-13.6,0-20.5C162.7,12.4,159.5,18.1,156.3,23.9z"/>
	<path shape-rendering="geometricPrecision" d="M187.1,26.6c0.1,0.1,0.1,0.2,0.2,0.3c0.7,0,1.5,0,2.2,0c-3-6.5-6.1-13.1-9.1-19.6l-0.3-0.6l-8.9,19.5
		c-0.1,0.3-0.3,0.5-0.4,0.8c0.4,0,0.7,0,1.1,0c0.2,0,0.4,0,0.6,0c0.2,0,0.4,0,0.6,0c0.3-0.7,0.7-1.4,1-2.1c0.3-0.7,0.6-1.3,0.9-1.9
		l1.7-3.6h7.1L187.1,26.6z M182.7,17.8h-5.4l2.8-6.5l1.1,2.6c0.2,0.5,0.4,1,0.6,1.5c0.2,0.5,0.4,1,0.7,1.5c0.1,0.2,0.2,0.4,0.3,0.6
		C182.7,17.7,182.7,17.7,182.7,17.8z"/>
	<path shape-rendering="geometricPrecision" d="M30.5,37.8l-4.5,9.1c-0.1,0.1-0.1,0.2-0.2,0.4c0.2,0,0.4,0,0.6,0c0.1,0,0.2,0,0.3,0c0.1,0,0.2,0,0.3,0
		c0.2-0.3,0.3-0.7,0.5-1c0.2-0.3,0.3-0.6,0.4-0.9l0.8-1.7h3.5l1.8,3.4c0,0.1,0.1,0.1,0.1,0.2c0.4,0,0.7,0,1.1,0
		c-1.5-3-3-6.1-4.5-9.1L30.5,37.8z M31.9,43h-2.7l1.4-3l0.5,1.2c0.1,0.2,0.2,0.5,0.3,0.7c0.1,0.2,0.2,0.5,0.3,0.7
		C31.8,42.8,31.8,42.9,31.9,43C31.9,43,31.9,43,31.9,43z"/>
	<path shape-rendering="geometricPrecision" d="M84.3,37.8l-4.5,9.1c-0.1,0.1-0.1,0.2-0.2,0.4c0.2,0,0.4,0,0.6,0c0.1,0,0.2,0,0.3,0c0.1,0,0.2,0,0.3,0
		c0.2-0.3,0.3-0.7,0.5-1c0.2-0.3,0.3-0.6,0.4-0.9l0.8-1.7H86l1.8,3.4c0,0.1,0.1,0.1,0.1,0.2c0.4,0,0.7,0,1.1,0
		c-1.5-3.1-3-6.1-4.5-9.2L84.3,37.8z M85.6,43.1h-2.7l1.4-3l0.5,1.2c0.1,0.2,0.2,0.5,0.3,0.7c0.1,0.2,0.2,0.5,0.3,0.7
		C85.5,42.8,85.6,42.9,85.6,43.1C85.6,43,85.6,43,85.6,43.1z"/>
	<path shape-rendering="geometricPrecision" d="M190.1,37.8l-4.5,9.1c-0.1,0.1-0.1,0.2-0.2,0.4c0.2,0,0.4,0,0.6,0c0.1,0,0.2,0,0.3,0c0.1,0,0.2,0,0.3,0
		c0.2-0.3,0.3-0.7,0.5-1c0.2-0.3,0.3-0.6,0.4-0.9l0.8-1.7h3.5l1.8,3.4c0,0.1,0.1,0.1,0.1,0.2c0.4,0,0.7,0,1.1,0
		c-1.5-3-3-6.1-4.5-9.1L190.1,37.8z M191.4,43h-2.7l1.4-3l0.5,1.2c0.1,0.2,0.2,0.5,0.3,0.7c0.1,0.2,0.2,0.5,0.3,0.7
		C191.3,42.8,191.3,42.9,191.4,43C191.4,43,191.4,43,191.4,43z"/>
	<path shape-rendering="geometricPrecision" d="M221.3,37.8l-4.5,9.1c-0.1,0.1-0.1,0.2-0.2,0.4c0.2,0,0.4,0,0.6,0c0.1,0,0.2,0,0.3,0c0.1,0,0.2,0,0.3,0
		c0.2-0.3,0.3-0.7,0.5-1c0.2-0.3,0.3-0.6,0.4-0.9l0.8-1.7h3.5l1.8,3.4c0,0.1,0.1,0.1,0.1,0.2c0.4,0,0.7,0,1.1,0
		c-1.5-3-3-6.1-4.5-9.1L221.3,37.8z M222.7,43.1h-2.7l1.4-3l0.5,1.2c0.1,0.2,0.2,0.5,0.3,0.7c0.1,0.2,0.2,0.5,0.3,0.7
		C222.5,42.8,222.6,42.9,222.7,43.1C222.6,43,222.7,43,222.7,43.1z"/>
</g>
</svg>
